<svg width="40" height="40" viewBox="0 0 40 40" fill="none" xmlns="http://www.w3.org/2000/svg">
<path fill-rule="evenodd" clip-rule="evenodd" d="M14.3382 2.55489C13.4082 2.25906 13.1065 1.84415 13.454 1.33905C13.6375 1.07224 13.7981 0.99897 14.1973 1.00001C15.4651 1.00313 17.0603 2.20674 17.7262 3.66245L18.0969 4.47314H20.7493L21.1274 3.68848C21.3353 3.25704 21.7817 2.62244 22.1195 2.27859C23.4672 0.906174 25.5693 0.555946 25.5693 1.70359C25.5693 2.08506 25.2385 2.34535 24.4974 2.54695C23.7331 2.75493 22.8206 3.61742 22.4884 4.44581L22.2359 5.0756L22.5704 5.28227C23.7486 6.01006 24.7587 7.3403 25.1157 8.63462C25.403 9.67672 25.301 11.1178 24.8681 12.1299L24.5327 12.9143L25.6142 13.2049C28.4255 13.9604 32.4636 16.2511 34.5876 18.2954C35.9991 19.6537 36.5116 20.4239 36.8559 21.704C37.8705 25.4762 33.3655 29.5477 28.3975 29.3486L27.3313 29.3059L26.9942 30.2588C26.0116 33.0361 24.3045 35.032 22.051 36.0382C20.8322 36.5825 20.7144 36.7135 20.2234 38.0731C19.9374 38.8649 19.801 38.997 19.2665 39C18.8393 39.0023 18.6938 38.8495 18.4633 38.156C18.0362 36.8717 17.6951 36.4357 16.792 36.0198C15.6438 35.4913 14.5186 34.6105 13.7374 33.6289C13.021 32.7285 12.0082 30.7999 11.7657 29.8741L11.6078 29.271L10.4888 29.3375C9.10932 29.4195 7.57378 29.0841 6.04234 28.3662C4.69604 27.7351 2.97535 26.1512 2.39696 25.011C2.03719 24.3016 2.00085 24.1047 2.00003 22.8576C1.99921 21.5258 2.01492 21.4546 2.52745 20.4661C2.93258 19.6848 3.33075 19.1848 4.23543 18.3206C6.52836 16.1306 10.8297 13.7541 13.6788 13.1031C14.246 12.9735 14.3639 12.9013 14.2878 12.7296C13.7038 11.413 13.6397 11.157 13.631 10.1091C13.6248 9.3628 13.702 8.77987 13.8683 8.31784C14.2361 7.29592 15.1084 6.14099 15.9418 5.5725L16.6746 5.07273L16.2884 4.3046C15.8009 3.335 15.2576 2.84746 14.3382 2.55489ZM18.4642 15.1116C18.3327 15.2642 18.0609 15.4306 17.6446 15.6141C16.6933 16.0331 15.4928 17.1006 14.7361 18.2002C14.4568 18.6062 14.2283 18.9608 14.2283 18.9885C14.2283 19.0161 14.797 18.8938 15.4922 18.7167C16.6298 18.4267 17.0227 18.3942 19.4206 18.3916C21.8391 18.389 22.2017 18.4188 23.349 18.7138C24.0442 18.8926 24.6129 19.0031 24.6129 18.9594C24.6129 18.9157 24.4223 18.5937 24.1893 18.2437C23.5308 17.2547 22.1367 16.0036 21.2738 15.6273C20.8794 15.4553 20.6029 15.2932 20.4444 15.1351C20.1391 15.2101 19.8233 15.25 19.5 15.25C19.1443 15.25 18.7977 15.2017 18.4642 15.1116ZM13.4341 25.9284C14.6298 25.4022 16.2126 24.9902 17.6446 24.8323C19.0811 24.6741 19.5806 24.6721 21.0603 24.8193C22.5608 24.9686 24.4702 25.4587 25.5617 25.9749L26.3208 26.3338L26.3049 27.2993C26.292 28.0748 25.8355 30.1824 25.6356 30.3891C25.6132 30.4123 25.0923 30.2799 24.4783 30.0951C21.3844 29.1643 17.7824 29.119 14.8588 29.9745C14.7765 29.9985 14.6984 30.0216 14.6243 30.0434L14.6186 30.0451C13.8565 30.2697 13.5136 30.3708 13.3127 30.2458C13.1484 30.1435 13.0791 29.8901 12.9532 29.4293C12.9379 29.3734 12.9217 29.3141 12.9045 29.252C12.7375 28.6498 12.5593 27.7564 12.5087 27.2666L12.4167 26.3763L13.4341 25.9284Z" fill="white"/>
</svg>
