<svg width="40" height="40" viewBox="0 0 40 40" fill="none" xmlns="http://www.w3.org/2000/svg">
<path d="M23.3529 10H1V14.4444H23.3529V10Z" fill="white"/>
<path d="M8.48368 18.9543C8.316 18.9543 8.15542 19.0162 8.03687 19.1265C7.91844 19.2369 7.85186 19.3865 7.85186 19.5425C7.85186 19.6985 7.91844 19.8481 8.03687 19.9584C8.15542 20.0688 8.316 20.1307 8.48368 20.1307C8.65122 20.1307 8.81193 20.0688 8.93036 19.9584C9.04891 19.8481 9.11536 19.6985 9.11536 19.5425C9.11536 19.3865 9.04891 19.2369 8.93036 19.1265C8.81193 19.0162 8.65122 18.9543 8.48368 18.9543Z" fill="white"/>
<path fill-rule="evenodd" clip-rule="evenodd" d="M2.11765 15.5556H22.2353V27.7778C22.2353 28.3672 21.9998 28.9324 21.5806 29.3491C21.1614 29.7659 20.5928 30 20 30H4.35294C3.76015 30 3.1915 29.7659 2.77238 29.3491C2.35313 28.9324 2.11765 28.3672 2.11765 27.7778V15.5556ZM15.1175 18.9543C16.0968 18.9543 17.0128 19.2307 17.7647 19.7072L17.0318 21.4072C16.509 20.9624 15.8257 20.7168 15.1175 20.7189C13.5381 20.7189 12.2744 21.8954 12.2744 23.366C12.2744 24.8366 13.5381 26.013 15.1175 26.013C15.7682 26.013 16.3621 25.8131 16.8423 25.4719L17.5625 27.1484C16.8244 27.562 15.979 27.7797 15.1175 27.7778C13.8607 27.7778 12.6555 27.313 11.7669 26.4856C10.8782 25.6582 10.379 24.5361 10.379 23.366C10.379 22.1959 10.8782 21.0738 11.7669 20.2464C12.6555 19.4191 13.8607 18.9543 15.1175 18.9543ZM8.48368 17.7778C8.98629 17.7778 9.46844 17.9637 9.82385 18.2947C10.1794 18.6256 10.379 19.0744 10.379 19.5425C10.379 20.0105 10.1794 20.4594 9.82385 20.7903C9.46844 21.1213 8.98629 21.3072 8.48368 21.3072C7.98093 21.3072 7.49878 21.1213 7.14338 20.7903C6.78797 20.4594 6.58824 20.0105 6.58824 19.5425C6.58824 19.0744 6.78797 18.6256 7.14338 18.2947C7.49878 17.9637 7.98093 17.7778 8.48368 17.7778Z" fill="white"/>
<path fill-rule="evenodd" clip-rule="evenodd" d="M26.6008 13.159C27.9627 11.8497 29.8093 11.1132 31.7353 11.1111C33.6613 11.1132 35.5079 11.8497 36.8698 13.159C38.2318 14.4684 38.9978 16.2436 39 18.0953C39 24.0716 32.3958 28.5851 32.1142 28.774C32.0031 28.8487 31.8709 28.8889 31.7353 28.8889C31.5997 28.8889 31.4675 28.8487 31.3564 28.774C31.0748 28.5851 24.4706 24.0716 24.4706 18.0953C24.4728 16.2436 25.2388 14.4684 26.6008 13.159ZM33.2029 15.9836C32.7685 15.7045 32.2578 15.5556 31.7353 15.5556C31.0347 15.5556 30.3628 15.8232 29.8673 16.2994C29.3719 16.7758 29.0936 17.4217 29.0936 18.0953C29.0936 18.5976 29.2486 19.0886 29.5387 19.5063C29.8291 19.924 30.2416 20.2495 30.7243 20.4417C31.207 20.6339 31.7382 20.6842 32.2507 20.5862C32.7632 20.4882 33.2339 20.2463 33.6033 19.8912C33.9728 19.536 34.2244 19.0835 34.3263 18.5908C34.4282 18.0981 34.3759 17.5875 34.1759 17.1234C33.9759 16.6593 33.6374 16.2627 33.2029 15.9836Z" fill="white"/>
</svg>
