<svg width="40" height="40" viewBox="0 0 40 40" fill="none" xmlns="http://www.w3.org/2000/svg">
<path d="M16.6019 21.6982V8.09952C16.6019 5.27778 14.3242 3 11.5024 3C8.68069 3 6.4029 5.27778 6.4029 8.09952V21.6982C2.64626 24.52 1.88133 29.8405 4.70307 33.5971C7.5248 37.3537 12.8453 38.1187 16.6019 35.2969C20.3586 32.4752 21.1235 27.1547 18.3018 23.3981C17.8241 22.749 17.251 22.1759 16.6019 21.6982ZM11.5024 6.39968C12.4373 6.39968 13.2023 7.1646 13.2023 8.09952V13.199H9.80258V8.09952C9.80258 7.1646 10.5675 6.39968 11.5024 6.39968ZM30.2006 11.4992C30.2006 11.4992 23.4013 18.8765 23.4013 23.5171C23.4013 32.4242 37 32.4242 37 23.5171C37 18.8765 30.2006 11.4992 30.2006 11.4992Z" fill="#ffffff"/>
</svg>
